<?xml version="1.0" encoding="UTF-8"?>
<svg id="Layer_2" xmlns="http://www.w3.org/2000/svg" viewBox="0 0 324.48 55.09">
  <defs>
    <style>
      .cls-1 {
        fill: #f1f1f2;
      }

      .cls-2 {
        fill: #c085fd;
      }
    </style>
  </defs>
  <g id="Layer_1-2" data-name="Layer_1">
    <path class="cls-1" d="M183.32,52.56h-4.24c-.61,0-1.11-.49-1.13-1.11l-.33-20.24c-.01-1.19-1.62-1.55-2.14-.48l-10.31,21.19c-.19.39-.58.64-1.01.64h-2.94c-.49,0-.94-.33-1.07-.8l-12.23-40.26c-.12-.39-.7-.31-.7.1v39.82c0,.62-.51,1.13-1.13,1.13h-4.73c-.62,0-1.13-.51-1.13-1.13V10.91c0-4.34,3.52-7.88,7.88-7.88h4.65c.49,0,.92.33,1.07.79l9.67,31.1h0l6.95-13.91c.19-.39.58-.62,1-.62l11.96-.04c.62,0,1.13.51,1.13,1.13l-.12,29.96c0,.62-.51,1.11-1.13,1.11h.01ZM188.79,52.56h5.62c.24,0,.43-.19.43-.43l.39-23.84c0-.45.62-.59.82-.18l11.78,24.19c.07.15.22.24.39.24h3.88c.19,0,.36-.12.42-.31l12.24-40.27c.15-.48.85-.37.85.12v40.02c0,.24.19.43.43.43h6.11c.24,0,.43-.19.43-.43V10.21c0-3.97-3.21-7.18-7.18-7.18h-5.85c-.19,0-.36.12-.42.3l-9.82,31.59h0l-7.15-14.3c-.07-.15-.22-.24-.39-.24l-13.09-.06c-.24,0-.43.19-.43.43l.12,31.35c0,.24.19.43.43.43h0Z"/>
    <path class="cls-1" d="M60.58,40.61l4.96-1.11c1.75-.39,3.46.52,4.35,2.08,1.72,3.03,5.2,4.55,10.42,4.55,3.03,0,5.36-.62,6.98-1.89,1.63-1.26,2.45-2.82,2.45-4.68,0-1.35-.37-2.6-1.11-3.76-.74-1.14-2.32-2.05-4.76-2.7l-9.05-2.47c-3.09-.85-5.38-1.81-6.87-2.88-1.49-1.07-2.66-2.6-3.55-4.55-.89-1.96-1.34-4.06-1.34-6.27,0-4.43,1.58-7.98,4.71-10.65,3.15-2.67,7.16-4.01,12.07-4.01,4.07,0,7.7.94,10.91,2.79,1.43.83,2.62,1.81,3.58,2.94,1.81,2.14.61,5.47-2.11,6.17l-.45.12c-1.62.42-3.25-.3-4.25-1.65-1.56-2.12-4.06-3.19-7.52-3.19-2.66,0-4.68.58-6.09,1.74-1.4,1.16-2.1,2.63-2.1,4.43,0,2.82,2.2,4.81,6.58,5.94l8.04,2.11c4.87,1.28,8.14,3.18,9.81,5.68s2.5,5.26,2.5,8.29c0,4.86-1.75,8.69-5.26,11.49-3.51,2.79-8.04,4.19-13.61,4.19-4.7,0-8.8-1.03-12.33-3.09-3.52-2.05-5.87-5.26-7.03-9.61"/>
    <path class="cls-1" d="M131.88,3.03c1.87,0,3.39,1.52,3.39,3.39v28.44c0,4.31-.46,7.62-1.38,9.94s-2.7,4.32-5.36,6c-2.65,1.68-5.88,2.53-9.69,2.53s-7.03-.73-9.53-2.17c-2.48-1.46-4.26-3.43-5.36-5.97-1.08-2.53-1.63-5.75-1.63-6V10.1c0-5.55,1.52-7.07,3.39-7.07h1.95c1.87,0,3.39,1.52,3.39,3.39v28.44c0,4.35.88,7.21,2.62,8.57,1.74,1.37,3.77,2.05,6.09,2.05,2.66,0,4.78-.73,6.37-2.2,1.59-1.46,2.39-4.28,2.39-8.44V6.42c0-1.87,1.52-3.39,3.39-3.39h-.01Z"/>
    <path class="cls-1" d="M245.93,52.56h-8.53V16.38h8.53s0,36.18,0,36.18Z"/>
    <path class="cls-1" d="M259.35,53.12h-4.81c-1.2,0-2.17-.97-2.17-2.17V10.94l-.1-5.5c-.03-1.22.95-2.21,2.17-2.21h17.5c1.2,0,2.17.97,2.17,2.17v3.37c0,1.2-.97,2.17-2.17,2.17h-8.25c-1.2,0-2.17.97-2.17,2.17v37.85c0,1.2-.97,2.17-2.17,2.17h0Z"/>
    <g>
      <path class="cls-2" d="M268.37,28.62v-4.59c0-.8.31-1.59.88-2.17l2.81-2.91c.55-.56,1.52-.18,1.52.61v11.07h-3.18c-1.11,0-2.01-.91-2.01-2.01h-.01Z"/>
      <path class="cls-2" d="M278.49,50.85v-2.23c0-.48.15-.92.43-1.31l11.87-15.83c.71-.94,1.26-1.9,1.66-2.91s.59-1.95.59-2.84v-.04c0-1.41-.42-2.5-1.23-3.28s-1.99-1.16-3.52-1.16c-1.43,0-2.59.43-3.48,1.28s-1.44,2.05-1.63,3.61v.03h-5.13v-.03c.43-3.05,1.55-5.39,3.33-7.07,1.78-1.68,4.07-2.51,6.87-2.51,3.17,0,5.62.8,7.36,2.41s2.6,3.86,2.6,6.79v.03c0,1.25-.25,2.56-.77,3.92s-1.23,2.67-2.15,3.92l-10.22,13.88h11.83c.83,0,1.52.68,1.52,1.52v1.99c0,.67-.53,1.2-1.2,1.2h-17.36c-.74,0-1.34-.59-1.34-1.34v-.03Z"/>
      <path class="cls-2" d="M314.55,52.56c-2.69,0-4.89-.77-6.61-2.32s-2.81-3.73-3.24-6.54v-.03h4.95v.03c.18,1.29.7,2.3,1.56,3.02s1.98,1.08,3.34,1.08c1.59,0,2.81-.53,3.67-1.59s1.29-2.56,1.29-4.47v-2.96c0-1.93-.43-3.42-1.29-4.47s-2.1-1.58-3.67-1.58c-.86,0-1.68.24-2.48.73-.59.37-1.13.83-1.62,1.43-.31.37-.76.62-1.25.62h-2.6c-.62,0-1.13-.51-1.13-1.13v-17.46h16.98c.55,0,1,.45,1,1v2.48c0,.68-.55,1.23-1.23,1.23h-10.51c-.71,0-1.29.58-1.29,1.29v6.64c.61-.51,1.31-.89,2.07-1.16s1.53-.42,2.33-.42c3.08,0,5.45.94,7.13,2.82,1.68,1.89,2.53,4.55,2.53,7.98v2.96c0,3.45-.86,6.11-2.6,7.99s-4.18,2.82-7.33,2.82h0Z"/>
    </g>
    <rect class="cls-1" x="38.65" y="25.9" width="15.11" height="5.65" rx="1.17" ry="1.17"/>
    <polygon class="cls-2" points="185.78 0 185.78 0 171.54 16.54 200.03 16.54 185.78 0"/>
    <rect class="cls-2" x="237.4" y="3.22" width="8.53" height="7.71" rx="1.56" ry="1.56"/>
    <path class="cls-2" d="M0,55.09h32.66v-6.54H7.76v-16.63h20.42v-6.54H0"/>
    <path class="cls-2" d="M0,11.03h31.89v-6.54H0"/>
  </g>
</svg>