<svg width="1261" height="173" viewBox="0 0 1261 173" fill="none" xmlns="http://www.w3.org/2000/svg">
<g clip-path="url(#clip0_74_4932)">
<path d="M825.317 162.476H812.23C810.348 162.476 808.804 160.961 808.743 159.045L807.724 96.4778C807.693 92.7992 802.724 91.6864 801.119 94.994L769.297 160.498C768.711 161.703 767.507 162.476 766.18 162.476H757.105C755.593 162.476 754.204 161.456 753.803 160.003L716.055 35.5493C715.685 34.3437 713.894 34.591 713.894 35.8585V158.952C713.894 160.869 712.32 162.445 710.407 162.445H695.808C693.894 162.445 692.32 160.869 692.32 158.952V33.7255C692.32 20.3095 703.184 9.36646 716.641 9.36646H730.994C732.506 9.36646 733.833 10.3866 734.296 11.8085L764.143 107.946L785.594 64.9471C786.18 63.7415 787.384 63.0305 788.68 63.0305L825.595 62.9069C827.509 62.9069 829.083 64.4834 829.083 66.4L828.712 159.014C828.712 160.93 827.138 162.445 825.225 162.445H825.255L825.317 162.476ZM842.2 162.476H859.546C860.287 162.476 860.874 161.889 860.874 161.147L862.077 87.4514C862.077 86.0603 863.991 85.6276 864.608 86.895L900.967 161.672C901.183 162.136 901.646 162.414 902.171 162.414H914.147C914.733 162.414 915.258 162.043 915.443 161.456L953.222 36.9713C953.685 35.4875 955.845 35.8275 955.845 37.3423V161.054C955.845 161.796 956.432 162.383 957.172 162.383H976.031C976.772 162.383 977.358 161.796 977.358 161.054V31.5616C977.358 19.2894 967.451 9.36646 955.197 9.36646H937.141C936.555 9.36646 936.03 9.7374 935.845 10.2938L905.535 107.946L883.467 63.7415C883.251 63.2778 882.788 62.9996 882.263 62.9996L841.861 62.8141C841.12 62.8141 840.534 63.4015 840.534 64.1434L840.904 161.054C840.904 161.796 841.49 162.383 842.231 162.383L842.2 162.476Z" fill="#F1F1F2"/>
<path d="M446.48 125.536L461.789 122.104C467.191 120.899 472.469 123.712 475.216 128.534C480.524 137.901 491.265 142.599 507.377 142.599C516.729 142.599 523.921 140.683 528.921 136.757C533.952 132.862 536.483 128.039 536.483 122.29C536.483 118.117 535.341 114.252 533.057 110.667C530.773 107.143 525.896 104.33 518.365 102.32L490.432 94.6849C480.895 92.0573 473.827 89.0897 469.228 85.7821C464.629 82.4745 461.018 77.7449 458.271 71.7169C455.524 65.6581 454.135 59.1664 454.135 52.3348C454.135 38.6406 459.011 27.6666 468.672 19.413C478.395 11.1594 490.771 7.01709 505.926 7.01709C518.488 7.01709 529.692 9.92286 539.6 15.6417C544.014 18.2074 547.687 21.2368 550.65 24.7299C556.236 31.3452 552.532 41.6391 544.137 43.8029L542.748 44.1739C537.748 45.4722 532.717 43.2465 529.631 39.0733C524.816 32.5199 517.099 29.2123 506.42 29.2123C498.21 29.2123 491.975 31.0052 487.623 34.591C483.302 38.1769 481.142 42.721 481.142 48.2853C481.142 57.0026 487.932 63.1542 501.451 66.6473L526.266 73.1698C541.298 77.1266 551.39 83 556.545 90.7281C561.699 98.4562 564.261 106.988 564.261 116.355C564.261 131.378 558.86 143.217 548.026 151.873C537.192 160.498 523.211 164.825 506.019 164.825C491.512 164.825 478.858 161.641 467.962 155.273C457.098 148.936 449.845 139.013 446.264 125.566" fill="#F1F1F2"/>
<path d="M666.548 9.36646C672.319 9.36646 677.011 14.0652 677.011 19.8458V107.761C677.011 121.084 675.591 131.316 672.751 138.488C669.912 145.66 664.418 151.842 656.208 157.035C648.029 162.229 638.059 164.856 626.3 164.856C614.54 164.856 604.601 162.6 596.885 158.148C589.231 153.635 583.737 147.545 580.342 139.693C577.008 131.873 575.311 121.919 575.311 121.146V31.2216C575.311 14.0652 580.002 9.36646 585.774 9.36646H591.792C597.564 9.36646 602.256 14.0652 602.256 19.8458V107.761C602.256 121.208 604.972 130.049 610.342 134.253C615.713 138.488 621.978 140.59 629.139 140.59C637.349 140.59 643.893 138.333 648.8 133.789C653.708 129.276 656.177 120.559 656.177 107.699V19.8458C656.177 14.0652 660.868 9.36646 666.64 9.36646H666.609H666.548Z" fill="#F1F1F2"/>
<path d="M1018.56 162.476H992.235V50.6348H1018.56V162.476Z" fill="#F1F1F2"/>
<path d="M1059.98 164.207H1045.14C1041.43 164.207 1038.44 161.208 1038.44 157.499V33.8181L1038.13 16.8163C1038.04 13.045 1041.06 9.98462 1044.83 9.98462H1098.84C1102.55 9.98462 1105.54 12.9831 1105.54 16.6926V27.1101C1105.54 30.8196 1102.55 33.8181 1098.84 33.8181H1073.38C1069.68 33.8181 1066.68 36.8167 1066.68 40.5261V157.53C1066.68 161.239 1063.69 164.238 1059.98 164.238V164.207Z" fill="#F1F1F2"/>
<path d="M1087.82 88.4716V74.2828C1087.82 71.8098 1088.78 69.3677 1090.54 67.5748L1099.21 58.5792C1100.91 56.8481 1103.9 58.0228 1103.9 60.4649V94.685H1094.09C1090.66 94.685 1087.89 91.872 1087.89 88.4716H1087.86H1087.82Z" fill="#C085FD"/>
<path d="M1119.06 157.19V150.297C1119.06 148.813 1119.52 147.453 1120.39 146.247L1157.02 97.3126C1159.22 94.4068 1160.91 91.4392 1162.15 88.3171C1163.38 85.1949 1163.97 82.2891 1163.97 79.5379V79.4143C1163.97 75.0556 1162.67 71.6861 1160.17 69.275C1157.67 66.8638 1154.03 65.6891 1149.31 65.6891C1144.89 65.6891 1141.31 67.0184 1138.57 69.6459C1135.82 72.2735 1134.12 75.983 1133.54 80.8053V80.8981H1117.7V80.8053C1119.03 71.377 1122.49 64.1435 1127.98 58.9502C1133.47 53.7569 1140.54 51.1912 1149.18 51.1912C1158.97 51.1912 1166.53 53.6642 1171.9 58.6411C1177.27 63.618 1179.93 70.5733 1179.93 79.6307V79.7234C1179.93 83.5875 1179.15 87.637 1177.55 91.8411C1175.94 96.0452 1173.75 100.095 1170.91 103.959L1139.37 146.865H1175.88C1178.44 146.865 1180.57 148.967 1180.57 151.564V157.716C1180.57 159.787 1178.94 161.425 1176.87 161.425H1123.29C1121 161.425 1119.15 159.601 1119.15 157.283V157.19H1119.06Z" fill="#C085FD"/>
<path d="M1230.36 162.476C1222.06 162.476 1215.27 160.096 1209.96 155.304C1204.65 150.513 1201.28 143.774 1199.96 135.088V134.995H1215.24V135.088C1215.79 139.075 1217.4 142.197 1220.05 144.423C1222.7 146.649 1226.16 147.762 1230.36 147.762C1235.27 147.762 1239.03 146.123 1241.69 142.847C1244.34 139.57 1245.67 134.933 1245.67 129.029V119.879C1245.67 113.913 1244.34 109.307 1241.69 106.061C1239.03 102.815 1235.2 101.177 1230.36 101.177C1227.7 101.177 1225.17 101.918 1222.7 103.433C1220.88 104.577 1219.22 105.999 1217.7 107.854C1216.75 108.997 1215.36 109.77 1213.85 109.77H1205.82C1203.91 109.77 1202.33 108.194 1202.33 106.277V52.304H1254.74C1256.44 52.304 1257.83 53.695 1257.83 55.3952V63.0615C1257.83 65.1635 1256.13 66.8637 1254.03 66.8637H1221.59C1219.4 66.8637 1217.61 68.6567 1217.61 70.8514V91.3773C1219.49 89.8008 1221.66 88.6261 1224 87.7915C1226.35 86.9568 1228.72 86.4932 1231.19 86.4932C1240.7 86.4932 1248.01 89.3989 1253.2 95.2105C1258.38 101.053 1261.01 109.276 1261.01 119.879V129.029C1261.01 139.694 1258.35 147.916 1252.98 153.728C1247.61 159.539 1240.08 162.445 1230.36 162.445V162.476Z" fill="#C085FD"/>
<path d="M421.819 80.0632H382.405C380.41 80.0632 378.793 81.6825 378.793 83.68V93.912C378.793 95.9095 380.41 97.5288 382.405 97.5288H421.819C423.814 97.5288 425.43 95.9095 425.43 93.912V83.68C425.43 81.6825 423.814 80.0632 421.819 80.0632Z" fill="#F1F1F2"/>
<path d="M832.91 0L788.958 51.1292H876.893L832.91 0Z" fill="#C085FD"/>
<path d="M1013.75 9.95386H997.05C994.391 9.95386 992.235 12.1129 992.235 14.7762V28.965C992.235 31.6283 994.391 33.7874 997.05 33.7874H1013.75C1016.41 33.7874 1018.56 31.6283 1018.56 28.965V14.7762C1018.56 12.1129 1016.41 9.95386 1013.75 9.95386Z" fill="#C085FD"/>
<path d="M259.5 170.297H360.305V150.08H283.451V98.6726H346.478V78.4558H259.5" fill="#C085FD"/>
<path d="M259.5 34.0964H357.929V13.8796H259.5" fill="#C085FD"/>
</g>
<g clip-path="url(#clip1_74_4932)">
<path d="M11.0789 124.457C20.7288 114.682 28.3494 103.908 34.6239 92.1156C35.6593 90.1814 36.6119 88.2055 37.5437 86.2297C37.9786 85.3354 38.4963 84.3579 39.4903 84.3787C40.5464 84.3787 40.4843 85.6474 40.7742 86.3753C44.5637 95.7553 48.6225 105.011 54.0066 113.6C55.2283 115.555 56.6779 117.323 58.583 118.862C62.911 111.5 67.1976 104.179 71.5048 96.8784C77.1995 87.2696 82.9563 77.7024 88.651 68.0936C89.5208 66.6377 90.3284 65.7018 91.7986 67.5529C99.7712 77.7024 109.545 86.0217 118.802 94.8818C122.198 98.1263 125.615 101.329 128.907 104.678C129.901 105.697 130.378 105.697 131.206 104.615C135.679 98.6463 140.235 92.7396 144.728 86.7913C146.861 83.9627 146.84 83.9419 149.305 86.3337C154.523 91.4085 159.742 96.4625 164.96 101.516C165.788 102.307 166.596 103.076 166.948 104.324C169.288 95.0898 169.309 85.7722 168.315 76.3713C170.261 76.3297 170.365 77.5568 170.489 78.8671C174.341 118.904 150.651 155.592 112.527 168.549C70.1381 182.962 22.986 160.958 6.62671 119.091C6.46104 118.654 6.29538 118.197 6.0883 117.76C5.65343 116.866 6.31609 116.533 6.91662 116.262C7.82777 115.846 7.72423 116.762 7.9106 117.198C8.946 119.528 9.93999 121.878 11.0375 124.436L11.0789 124.457Z" fill="url(#paint0_linear_74_4932)"/>
<path d="M73.7827 0C69.9932 8.56889 64.6505 15.6611 59.4735 22.8573C59.1836 23.2525 58.6866 24.1676 58.2517 23.4604C56.8229 21.1934 54.6278 22.0046 52.1222 22.067C57.2578 16.5346 62.0206 11.3975 66.7834 6.26028C59.8255 9.35922 54.6693 14.9124 48.3947 18.9264C41.7475 23.1901 35.5972 28.2441 29.2192 32.9445C22.9239 37.5825 16.6494 42.1997 9.85719 47.1913C11.5138 42.6573 12.922 38.664 12.425 34.234C11.7002 27.8073 7.55861 24.1468 2.48515 21.0686C1.59471 20.5279 -0.103347 20.5071 -0.0205146 19.2176C0.0830253 17.6785 1.69825 17.4705 3.00285 17.1586C25.9887 11.5222 48.9538 5.86511 71.919 0.228781C72.3746 0.12479 72.8302 0.12479 73.7827 0Z" fill="#C085FD"/>
<path d="M127.209 162.081L118.47 142.697C118.47 142.697 104.865 115.493 95.8987 83.7337C94.4492 78.6382 93.4552 74.5201 92.9375 72.3987C95.029 74.3329 106.232 85.876 108.261 87.8518C117.021 96.3791 126.422 104.262 134.25 113.746C136.921 116.99 153.032 133.088 155.351 136.582C155.558 136.894 154.73 138.454 154.751 138.808C154.751 138.808 146.488 148.271 146.281 148.52C145.722 149.207 139.033 157.027 127.188 162.081H127.209Z" fill="#F1F1F2"/>
<path d="M150.775 90.7429C154.958 94.7986 159.265 98.7087 163.283 102.931C165.643 105.406 167.445 108.193 165.436 112.061C164.194 114.453 163.78 117.282 162.33 119.985C158.913 109.877 154.564 100.518 150.775 90.7429Z" fill="#F1F1F2"/>
<path d="M39.4282 89.2454C43.1142 96.8367 46.2411 104.698 50.0721 112.123C51.7288 115.347 53.696 118.259 55.9532 120.921C56.5123 121.587 57.8997 121.982 57.2578 123.313C56.6158 124.665 55.5597 124.124 54.4829 123.646C50.7969 122.003 48.1049 119.028 46.2204 115.035C42.4516 107.028 41.644 97.8974 39.4489 89.2454H39.4282Z" fill="#F1F1F2"/>
<path d="M4.9081 109.752C-0.227476 90.1813 0.870047 68.7382 9.27749 50.2278" stroke="white" stroke-miterlimit="10" stroke-dasharray="4 4"/>
<path d="M5.34295 116.096C10.9755 131.029 20.5219 144.278 33.0916 154.115C45.6614 163.953 59.3494 169.652 74.3419 171.898C89.3345 174.144 104.865 172.48 118.947 166.74C134.975 160.188 148.973 148.562 158.416 134.003C168.687 118.176 172.415 99.291 171.524 80.5934C171.4 78.1392 171.214 75.6642 170.965 73.21C170.82 71.8997 168.75 71.8789 168.895 73.21C170.8 91.5541 168.895 110.46 160.156 126.953C152.08 142.239 138.827 154.864 123.358 162.497C110.001 169.09 94.905 171.773 80.0987 170.504C65.2925 169.236 51.1697 164.161 39.0141 155.883C26.8585 147.605 16.1732 135.21 9.73304 121.254C8.8633 119.382 8.0764 117.49 7.35162 115.555C6.87534 114.307 4.88737 114.848 5.36366 116.117L5.34295 116.096Z" fill="white"/>
</g>
<defs>
<linearGradient id="paint0_linear_74_4932" x1="5.98476" y1="119.777" x2="170.945" y2="119.777" gradientUnits="userSpaceOnUse">
<stop stop-color="#3E3E3F"/>
<stop offset="0.46" stop-color="#48484A"/>
<stop offset="0.51" stop-color="#4A4A4C"/>
<stop offset="1" stop-color="white"/>
</linearGradient>
<clipPath id="clip0_74_4932">
<rect width="1001.51" height="170.297" fill="white" transform="translate(259.5)"/>
</clipPath>
<clipPath id="clip1_74_4932">
<rect width="171.648" height="173" fill="white"/>
</clipPath>
</defs>
</svg>
